<?xml version="1.0" encoding="utf-8"?>
<!-- Generator: Adobe Illustrator 25.3.1, SVG Export Plug-In . SVG Version: 6.00 Build 0)  -->
<svg version="1.1" id="Capa_1" xmlns="http://www.w3.org/2000/svg" xmlns:xlink="http://www.w3.org/1999/xlink" x="0px" y="0px"
	 viewBox="0 0 24 24" style="enable-background:new 0 0 24 24;" xml:space="preserve">
<g>
	<g>
		<path d="M23,13.4c0-0.1,0-0.1,0-0.2c-0.3-3.6-3.3-6.5-6.9-6.5c-1.2-4.1-5.5-6.4-9.6-5.2C2.4,2.7,0.1,7,1.3,11.1
			C2,13.2,3.5,15,5.5,15.9c-0.7,0.4-1.4,0.9-2,1.4l-1,1c-0.4,0.4-0.5,1.1-0.1,1.6c0,0.1,0.1,0.1,0.2,0.1l1.2,0.9
			c1.7,1.3,3.8,2,5.9,2h1c2.1,0,4.2-0.7,5.9-2l0.4-0.3c3.5-0.5,6-3.4,6-6.9C23,13.6,23,13.5,23,13.4z M21.1,10
			c0.7,0.9,1.1,2,1.2,3.1l-0.3,0.2L20.1,12l0.6-2L21.1,10L21.1,10z M18.6,8c0.7,0.3,1.3,0.7,1.9,1.3h0c-0.2,0-0.3,0.1-0.4,0.3
			l-0.7,2.4l-1.2,0.5l-1.8-1.2V9.8l2-1.4C18.6,8.3,18.6,8.1,18.6,8z M10.3,9.7c0,0-0.1,0.1-0.1,0.1c0,0,0,0,0,0l-1-1l1.2-1.2
			c0.3,0.3,0.6,0.5,1,0.8h0C11,8.8,10.6,9.3,10.3,9.7z M9.8,10.5c-0.4,0.8-0.7,1.7-0.7,2.6c-0.3-1-0.9-1.8-1.6-2.6l1.2-1.2L9.8,10.5
			z M10.7,10.5l0.3,0.1l0.6,1.5l-1.5,1.5l-0.3-0.1C9.8,12.4,10.1,11.4,10.7,10.5z M10,14.3c0.1,0.1,0.3,0,0.4-0.1l1.7-1.7l1.4,0.6
			l0.7,2.4c0,0,0,0,0,0.1c-1.3-0.6-2.7-0.9-4.1-0.9c-0.1,0-0.2,0-0.3,0l0,0c0-0.2-0.1-0.3-0.1-0.5L10,14.3z M13.8,12.5l-1.5-0.6
			l-0.7-1.7c0-0.1-0.1-0.2-0.2-0.2l-0.3-0.2C11.7,9,12.5,8.4,13.5,8c0,0.2,0,0.3,0.1,0.4l2,1.4v1.4L13.8,12.5z M16,11.9l1.7,1.2
			c0,0,0,0,0,0c0,0,0,0,0,0l-0.6,2h-2.4l-0.6-2L16,11.9z M17.7,7.6L17.7,7.6l0.1,0.3L16,9.2l-1.8-1.2l0.1-0.3
			C15.5,7.3,16.6,7.3,17.7,7.6z M15.3,6.7C14.1,6.8,13,7.3,12,8c-0.4-0.2-0.7-0.5-1.1-0.8l3-3C14.5,4.9,15,5.8,15.3,6.7z M13.4,3.7
			l-3,3c-1-1.2-1.7-2.6-1.8-4.2l0-0.6C10.3,1.9,12,2.5,13.4,3.7z M7.8,2l0,0.6c0.1,1.7,0.8,3.4,2,4.6L8.7,8.4L4,3.7
			C5.1,2.8,6.4,2.2,7.8,2z M3.5,4.2l4.7,4.7L7,10c-1.3-1.2-2.9-1.9-4.6-2L1.8,8C2,6.6,2.6,5.3,3.5,4.2z M1.7,8.8l0.6,0
			c1.5,0.1,3,0.7,4.2,1.8l-3,3C2.3,12.2,1.7,10.5,1.7,8.8z M4,14.1l3-3c0.9,1.1,1.5,2.4,1.7,3.8C8,15,7.2,15.2,6.5,15.5
			C5.6,15.2,4.7,14.7,4,14.1z M17.4,19.3C17.3,19.4,17.3,19.4,17.4,19.3l-1.2,0.9c-1.6,1.2-3.5,1.8-5.4,1.8h-1c-2,0-3.9-0.6-5.4-1.8
			L3,19.4C2.9,19.3,2.8,19,3,18.9c0,0,0,0,0-0.1l1-1c0.7-0.7,1.6-1.2,2.5-1.6c0.1,0,0.1,0,0.2-0.1c3.2-1.3,7-0.7,9.6,1.7l1,1
			C17.5,19,17.5,19.2,17.4,19.3z M16.8,17.3c-0.6-0.6-1.3-1.1-2.1-1.5h2.7l0.8,0.8L17.5,18L16.8,17.3z M18.1,19.5L18.1,19.5
			c0.1-0.3,0.1-0.7-0.1-1l0.8-1.6h2.1l0.2,0.3C20.4,18.3,19.3,19.1,18.1,19.5z M21.6,16.5l-0.1-0.1c-0.1-0.1-0.2-0.2-0.3-0.2h-2.4
			l-0.8-0.8l0.6-2.3l1.1-0.5l2,1.4c0.1,0.1,0.2,0.1,0.4,0l0.2-0.1C22.2,14.8,22,15.7,21.6,16.5z"/>
	</g>
</g>
<g>
	<g>
		<path d="M13.5,18.4h-0.4V18c0-0.2-0.2-0.4-0.4-0.4s-0.4,0.2-0.4,0.4v0.4h-0.7V18c0-0.2-0.2-0.4-0.4-0.4s-0.4,0.2-0.4,0.4v0.4h-0.7
			V18c0-0.2-0.2-0.4-0.4-0.4S9.4,17.8,9.4,18v0.4H8.7V18c0-0.2-0.2-0.4-0.4-0.4S8,17.8,8,18v0.4H7.2V18c0-0.2-0.2-0.4-0.4-0.4
			S6.5,17.8,6.5,18v0.4H6.1c-0.2,0-0.4,0.2-0.4,0.4c0,0.2,0.2,0.4,0.4,0.4h0.4v0.4c0,0.2,0.2,0.4,0.4,0.4s0.4-0.2,0.4-0.4v-0.4H8
			v0.4c0,0.2,0.2,0.4,0.4,0.4s0.4-0.2,0.4-0.4v-0.4h0.7v0.4c0,0.2,0.2,0.4,0.4,0.4s0.4-0.2,0.4-0.4v-0.4h0.7v0.4
			c0,0.2,0.2,0.4,0.4,0.4s0.4-0.2,0.4-0.4v-0.4h0.7v0.4c0,0.2,0.2,0.4,0.4,0.4s0.4-0.2,0.4-0.4v-0.4h0.4c0.2,0,0.4-0.2,0.4-0.4
			C13.8,18.6,13.7,18.4,13.5,18.4z"/>
	</g>
</g>
</svg>
